<svg width="1024" height="711" viewBox="0 0 61 42" xmlns="http://www.w3.org/2000/svg" shape-rendering="crispEdges">
  <defs>
    <linearGradient id="goldGradient" x1="0" y1="0" x2="0" y2="42" gradientUnits="userSpaceOnUse">
      <stop offset="0%" stop-color="#F59A23"/>
      <stop offset="100%" stop-color="#B98745"/>
    </linearGradient>

    <style>
      :root {
      --accent-gold: #F59A23;
      --accent-brass: #B98745;
      }

      .logo-pixel {
      fill: url(#goldGradient);
      shape-rendering: crispEdges;
      }
    </style>
  </defs>

  <!-- background is transparent -->

  <g class="logo-pixel">
    <rect x="1" y="0" width="1" height="1"/>
    <rect x="58" y="0" width="1" height="1"/>
    <rect x="1" y="1" width="2" height="1"/>
    <rect x="57" y="1" width="2" height="1"/>
    <rect x="1" y="2" width="2" height="1"/>
    <rect x="57" y="2" width="2" height="1"/>
    <rect x="1" y="3" width="3" height="1"/>
    <rect x="56" y="3" width="3" height="1"/>
    <rect x="1" y="4" width="3" height="1"/>
    <rect x="56" y="4" width="3" height="1"/>
    <rect x="1" y="5" width="4" height="1"/>
    <rect x="55" y="5" width="4" height="1"/>
    <rect x="1" y="6" width="5" height="1"/>
    <rect x="54" y="6" width="5" height="1"/>
    <rect x="1" y="7" width="6" height="1"/>
    <rect x="53" y="7" width="6" height="1"/>
    <rect x="2" y="8" width="7" height="1"/>
    <rect x="51" y="8" width="8" height="1"/>
    <rect x="2" y="9" width="7" height="1"/>
    <rect x="51" y="9" width="7" height="1"/>
    <rect x="2" y="10" width="8" height="1"/>
    <rect x="50" y="10" width="8" height="1"/>
    <rect x="3" y="11" width="9" height="1"/>
    <rect x="48" y="11" width="10" height="1"/>
    <rect x="3" y="12" width="10" height="1"/>
    <rect x="47" y="12" width="10" height="1"/>
    <rect x="4" y="13" width="11" height="1"/>
    <rect x="45" y="13" width="12" height="1"/>
    <rect x="4" y="14" width="12" height="1"/>
    <rect x="44" y="14" width="12" height="1"/>

    <rect x="0" y="15" width="1" height="1"/>
    <rect x="5" y="15" width="14" height="1"/>
    <rect x="42" y="15" width="13" height="1"/>
    <rect x="59" y="15" width="2" height="1"/>

    <rect x="0" y="16" width="1" height="1"/>
    <rect x="5" y="16" width="15" height="1"/>
    <rect x="41" y="16" width="14" height="1"/>
    <rect x="59" y="16" width="2" height="1"/>

    <rect x="0" y="17" width="2" height="1"/>
    <rect x="7" y="17" width="13" height="1"/>
    <rect x="41" y="17" width="12" height="1"/>
    <rect x="58" y="17" width="3" height="1"/>

    <rect x="0" y="18" width="4" height="1"/>
    <rect x="9" y="18" width="12" height="1"/>
    <rect x="40" y="18" width="11" height="1"/>
    <rect x="56" y="18" width="5" height="1"/>

    <rect x="0" y="19" width="6" height="1"/>
    <rect x="10" y="19" width="11" height="1"/>
    <rect x="40" y="19" width="10" height="1"/>
    <rect x="54" y="19" width="7" height="1"/>

    <rect x="0" y="20" width="8" height="1"/>
    <rect x="11" y="20" width="12" height="1"/>
    <rect x="38" y="20" width="11" height="1"/>
    <rect x="52" y="20" width="9" height="1"/>

    <rect x="1" y="21" width="23" height="1"/>
    <rect x="37" y="21" width="22" height="1"/>
    <rect x="1" y="22" width="24" height="1"/>
    <rect x="36" y="22" width="23" height="1"/>
    <rect x="2" y="23" width="24" height="1"/>
    <rect x="35" y="23" width="23" height="1"/>
    <rect x="3" y="24" width="24" height="1"/>
    <rect x="34" y="24" width="23" height="1"/>
    <rect x="5" y="25" width="23" height="1"/>
    <rect x="33" y="25" width="22" height="1"/>
    <rect x="8" y="26" width="20" height="1"/>
    <rect x="32" y="26" width="20" height="1"/>

    <rect x="2" y="27" width="1" height="1"/>
    <rect x="11" y="27" width="18" height="1"/>
    <rect x="32" y="27" width="17" height="1"/>
    <rect x="57" y="27" width="1" height="1"/>

    <rect x="2" y="28" width="1" height="1"/>
    <rect x="4" y="28" width="3" height="1"/>
    <rect x="9" y="28" width="20" height="1"/>
    <rect x="31" y="28" width="20" height="1"/>
    <rect x="53" y="28" width="3" height="1"/>
    <rect x="57" y="28" width="1" height="1"/>

    <rect x="4" y="29" width="25" height="1"/>
    <rect x="31" y="29" width="25" height="1"/>

    <rect x="5" y="30" width="35" height="1"/>
    <rect x="41" y="30" width="14" height="1"/>

    <rect x="6" y="31" width="14" height="1"/>
    <rect x="21" y="31" width="18" height="1"/>
    <rect x="41" y="31" width="13" height="1"/>

    <rect x="7" y="32" width="13" height="1"/>
    <rect x="22" y="32" width="16" height="1"/>
    <rect x="40" y="32" width="13" height="1"/>

    <rect x="8" y="33" width="13" height="1"/>
    <rect x="23" y="33" width="14" height="1"/>
    <rect x="40" y="33" width="12" height="1"/>

    <rect x="9" y="34" width="7" height="1"/>
    <rect x="18" y="34" width="3" height="1"/>
    <rect x="24" y="34" width="12" height="1"/>
    <rect x="39" y="34" width="3" height="1"/>
    <rect x="44" y="34" width="7" height="1"/>

    <rect x="13" y="35" width="2" height="1"/>
    <rect x="18" y="35" width="4" height="1"/>
    <rect x="24" y="35" width="12" height="1"/>
    <rect x="39" y="35" width="4" height="1"/>
    <rect x="45" y="35" width="2" height="1"/>

    <rect x="17" y="36" width="4" height="1"/>
    <rect x="25" y="36" width="10" height="1"/>
    <rect x="40" y="36" width="4" height="1"/>

    <rect x="15" y="37" width="5" height="1"/>
    <rect x="25" y="37" width="10" height="1"/>
    <rect x="41" y="37" width="5" height="1"/>

    <rect x="14" y="38" width="4" height="1"/>
    <rect x="26" y="38" width="8" height="1"/>
    <rect x="43" y="38" width="3" height="1"/>

    <rect x="27" y="39" width="6" height="1"/>
    <rect x="28" y="40" width="4" height="1"/>
    <rect x="29" y="41" width="2" height="1"/>
  </g>
</svg>